<?xml version="1.0" encoding="UTF-8"?>
<!DOCTYPE svg PUBLIC "-//W3C//DTD SVG 1.1//EN" "http://www.w3.org/Graphics/SVG/1.1/DTD/svg11.dtd">
<!-- Creator: CorelDRAW X7 -->
<svg xmlns="http://www.w3.org/2000/svg" xml:space="preserve" width="50.7998mm" height="39.7932mm" version="1.1" style="shape-rendering:geometricPrecision; text-rendering:geometricPrecision; image-rendering:optimizeQuality; fill-rule:evenodd; clip-rule:evenodd"
viewBox="0 0 5080 3979"
 xmlns:xlink="http://www.w3.org/1999/xlink">
 <defs>
  <style type="text/css">
   <![CDATA[
    .fil0 {fill:#FFD623}
   ]]>
  </style>
 </defs>
 <g id="Layer_x0020_1">
  <metadata id="CorelCorpID_0Corel-Layer"/>
  <path class="fil0" d="M1823 81c-32,105 -9,137 26,220 78,186 15,224 232,335 190,99 333,-55 377,475 11,143 26,412 -39,524 -25,-23 -31,-58 -47,-90 -35,-72 -84,-28 -144,-49 -15,-6 -54,-38 -80,-54 -53,-33 -115,-70 -176,-102 -434,-234 -262,-76 -409,-417 -118,-274 -155,-419 51,-581 6,-96 -60,-111 -114,-58 -25,25 -94,105 -116,115 -57,26 -326,57 -406,65 -90,8 -106,33 -153,77 -25,24 -30,37 -56,59 -317,282 -381,166 -467,360 -71,162 -157,314 -246,464 -80,135 -64,703 73,761 29,-87 -87,-158 103,-461 78,-126 190,-255 337,-296 254,-71 322,-17 433,133 75,103 179,283 216,418 41,-15 32,-20 52,-62 12,-29 26,-48 44,-72 27,-37 81,-74 131,-98 123,-60 249,-61 361,5 -9,10 -104,76 -162,136 -25,27 -48,44 -70,74 -30,42 -31,52 -88,66 -193,49 -98,44 -189,108 -29,21 -71,41 -53,93 9,26 62,59 93,67l14 -41c4,-18 -6,-6 9,-37 18,-34 45,-42 64,-21 23,51 -36,83 -33,143 4,63 63,88 129,76 -9,-109 9,-89 44,-155 122,-5 83,74 86,159 42,4 102,-21 118,-52 8,-15 12,-153 12,-182 -20,-82 -168,-80 35,-243 46,-37 126,-49 195,-29 61,54 83,175 28,253 -47,67 -93,133 -134,212 -56,108 -54,109 -156,179 -55,38 -91,80 -129,131 -76,101 -53,25 -326,-7 -274,-31 -503,176 -632,373 -40,61 -101,154 -77,249 16,65 101,169 137,199 194,161 239,152 535,110 -24,95 -26,42 -17,149 5,62 -23,75 -5,158 28,-14 86,-73 116,-77 64,-10 50,89 63,140 87,-39 63,-226 250,-69 27,23 8,17 39,29 41,-57 -10,-101 52,-178 55,-69 38,-88 49,-182 75,-24 294,-41 389,-52 524,-64 218,-122 735,-7 156,34 248,36 408,43l10 97c70,37 86,53 183,75 83,19 113,64 171,87l7 -68c73,16 163,73 214,83 -5,-38 -24,-86 -43,-104 46,0 71,27 116,22 -18,-67 -52,-77 -93,-113 -29,-26 -23,-38 -46,-60 -25,-27 -43,-21 -41,-75 198,-108 420,-125 559,-316l183 -258c37,-53 94,-33 135,-87 72,-95 94,-53 130,-91 22,-29 3,-39 18,-78 11,-28 31,-28 30,-62 0,-11 -45,-120 -55,-134 -11,-10 -120,0 -104,-105 6,-39 134,-125 32,-190 -35,-21 -50,-44 -63,-90 57,-93 17,-46 -11,-172 -35,39 10,23 -38,37 -31,-48 -16,-65 -10,-129 60,33 101,75 156,118 100,79 134,248 161,377 7,33 20,83 22,115 5,52 -23,89 -1,121 63,-14 125,-233 128,-295 6,-132 1,-267 -17,-400 -23,-180 -59,-348 -114,-519 -19,-59 -24,-117 -81,-140 -101,-42 -174,-94 -245,-177 -32,-37 -63,-73 -95,-116 -33,-46 -45,-100 -91,-130 -116,-77 -115,-33 -260,-162 -45,-40 -69,-51 -101,-110 -22,-41 -46,-104 -94,-129 -47,-3 -64,15 -81,50l91 171c44,131 -136,330 -236,534 -91,185 -77,169 -259,260 -58,29 -115,51 -181,78 -251,100 -165,-66 -289,114 -17,24 -1,12 -24,22 -37,-76 -110,-462 -141,-578 -25,-92 -52,-193 -73,-283 -14,-61 -6,-27 10,-61 30,-67 -35,-58 -53,-106 -6,-20 -6,-73 -6,-95 85,5 160,44 222,80 125,74 168,-38 96,-86 -154,-104 -323,-151 -440,-309 -22,-30 -44,-49 -98,-56 -94,-13 -199,17 -282,-25 -53,-26 -115,-126 -198,-86 -32,16 -56,51 -90,63 -48,18 -86,0 -132,5zm2199 2066c-24,-32 -46,-85 -68,-120 -91,-151 -137,-244 -356,-229 6,24 120,147 139,167 113,120 111,98 211,117 84,138 78,62 127,121 54,65 -2,147 -69,158 -24,-53 -14,-105 -96,-79 -26,71 42,64 8,141 -17,38 -93,58 -136,44 -14,-52 41,-163 -73,-171 -42,37 -44,75 -56,130 -42,-7 -85,-39 -101,-67 -4,-15 15,-120 23,-134 16,-27 85,-41 63,-111 -14,-42 -144,-170 -173,-184 -31,-15 -100,0 -134,11 -46,15 -62,55 -80,105 -54,153 -10,160 33,286 27,82 70,316 145,383 38,34 67,37 106,76 29,30 51,61 78,95 86,110 98,61 230,321 258,18 594,-167 662,-320 -30,-20 -78,-18 -120,-24 -60,-95 0,-75 -7,-167 -4,-49 -44,-103 -45,-167l66 3c7,-53 11,-81 -5,-110 -2,-4 -49,-53 20,-98 85,-56 67,-90 39,-229 -11,-52 1,-122 4,-179 3,-62 1,-44 37,-60 43,-18 26,-9 32,-73 32,12 13,14 46,26 -6,-35 3,-13 -76,-65 -99,-67 -110,-90 -174,-20 -83,90 -174,229 -240,336 -24,38 -20,72 -60,87z"/>
 </g>
</svg>
