<?xml version="1.0" encoding="UTF-8"?>
<!DOCTYPE svg PUBLIC "-//W3C//DTD SVG 1.1//EN" "http://www.w3.org/Graphics/SVG/1.1/DTD/svg11.dtd">
<!-- Creator: CorelDRAW X7 -->
<svg xmlns="http://www.w3.org/2000/svg" xml:space="preserve" width="62.1452mm" height="66.6326mm" version="1.1" style="shape-rendering:geometricPrecision; text-rendering:geometricPrecision; image-rendering:optimizeQuality; fill-rule:evenodd; clip-rule:evenodd"
viewBox="0 0 6215 6663"
 xmlns:xlink="http://www.w3.org/1999/xlink">
 <defs>
  <style type="text/css">
   <![CDATA[
    .fil0 {fill:#FFD623}
   ]]>
  </style>
 </defs>
 <g id="Layer_x0020_1">
  <metadata id="CorelCorpID_0Corel-Layer"/>
  <path class="fil0" d="M4130 6271l8 0c17,-20 68,-52 94,-71 45,-33 43,-45 113,-24 77,22 178,55 258,68l-49 -124 214 14c-15,-27 -70,-89 -93,-115 -44,-50 -24,-57 -21,-170 3,-136 11,-266 -2,-402 -11,-110 -44,-240 -79,-337 -18,-49 -36,-100 -59,-143 -22,-41 -58,-94 -73,-129 51,-101 119,-186 181,-336 57,-140 90,-262 92,-429 42,-37 254,-155 315,-190 238,-133 375,-260 547,-456 49,-55 48,-85 137,-112 58,-18 135,-49 193,-58 -10,-32 -61,-82 -91,-123 21,-29 85,-96 94,-115l-147 -72 23 -158c-24,8 -68,47 -89,64 -49,37 -43,31 -119,30 -198,-3 -388,9 -582,37 -168,25 -160,54 -239,73 -26,-225 -87,-245 -34,-337 52,-90 98,-172 152,-263 205,-343 408,-710 613,-1060l230 -397c24,-43 58,-91 73,-138l-1649 635 96 -357 -499 194 -14 -936c-44,20 -795,561 -864,611 -48,34 -95,66 -142,100 -37,26 -106,82 -144,99l9 -65c-25,8 -74,53 -92,70l-5 -21c0,-10 2,-14 4,-22 -20,4 -9,0 -27,15 -19,16 -37,40 -58,51l-21 -276c-24,8 -77,103 -94,127 -30,42 -66,94 -90,135 -40,-37 -155,-340 -188,-374 -35,58 -74,156 -106,225 -32,71 -75,153 -101,224 -58,-32 -174,-166 -232,-219l-173 -166c-46,-49 -127,-108 -174,-165 -50,-59 -150,-137 -230,-223 -23,-25 -92,-90 -117,-107 -8,56 25,438 31,526l90 1305c11,139 -4,113 -39,224 -31,-17 -123,-107 -162,-137 -28,-20 -75,-29 -86,-65 -16,-51 -6,-93 -33,-119l-103 107c-44,-30 -78,-67 -103,-70l1 176 -103 41c13,24 39,50 57,66 92,81 38,76 67,296 32,246 85,434 180,656 22,51 36,56 41,71 8,26 15,184 19,224 18,188 51,408 133,575 51,105 43,57 18,181 -67,325 -76,532 -36,863 6,45 20,66 -5,90 -24,22 -44,25 -60,56l168 10 -65 112 232 -25c3,43 4,103 22,138l31 -30c101,-119 98,-64 236,-164l197 -150c17,-16 40,-39 64,-50 199,113 494,218 754,257 414,61 561,-16 905,-67 18,23 45,84 65,115 80,124 140,189 266,277 70,49 258,160 344,198l119 60 6 171zm-1366 -2867c64,248 368,333 644,230 119,-44 223,-106 289,-193 223,-295 117,-476 34,-732 -50,16 -877,647 -967,695zm-481 1342c120,38 482,39 587,-13l-12 -659c-67,-11 -225,0 -305,-3 -102,-4 -190,-20 -289,-29l19 704zm-1016 -1808c0,300 170,631 466,516 74,-29 155,-72 198,-139l-532 -831c-113,55 -132,336 -132,454zm1001 1804l-17 -703c-145,-26 -255,-44 -391,-99 -41,-17 -78,-40 -118,-54 3,80 16,620 44,648 40,40 160,98 219,121 71,27 189,74 263,87zm604 -671l15 656c129,-4 368,-170 435,-228 104,-90 98,-58 94,-232 -3,-110 -7,-221 -8,-331 -78,18 -159,67 -248,92 -103,28 -185,25 -288,43zm-1114 433l-31 -627 -271 -185c0,76 15,478 37,517l118 154c36,45 95,118 147,141zm1664 -577l10 456c42,-11 142,-189 166,-234 51,-98 74,-216 82,-341l-258 119zm-1957 233c1,-135 -17,-298 -22,-438 -3,-59 1,-47 -74,-106 -27,-22 -23,-32 -54,-47 1,173 41,472 150,591zm1292 -980c21,-18 45,-52 64,-73 24,-27 42,-50 65,-78 42,-53 89,-99 124,-151 -17,5 -160,87 -175,101 -20,18 -70,164 -78,201z"/>
 </g>
</svg>
