<?xml version="1.0" encoding="UTF-8"?>
<!DOCTYPE svg PUBLIC "-//W3C//DTD SVG 1.1//EN" "http://www.w3.org/Graphics/SVG/1.1/DTD/svg11.dtd">
<!-- Creator: CorelDRAW X7 -->
<svg xmlns="http://www.w3.org/2000/svg" xml:space="preserve" width="25.3998mm" height="25.3998mm" version="1.1" style="shape-rendering:geometricPrecision; text-rendering:geometricPrecision; image-rendering:optimizeQuality; fill-rule:evenodd; clip-rule:evenodd"
viewBox="0 0 2540 2540"
 xmlns:xlink="http://www.w3.org/1999/xlink">
 <defs>
  <style type="text/css">
   <![CDATA[
    .fil0 {fill:#BD9A00}
    .fil1 {fill:#FFE366}
   ]]>
  </style>
 </defs>
 <g id="Layer_x0020_1">
  <metadata id="CorelCorpID_0Corel-Layer"/>
  <g id="_1357126858112">
   <path class="fil0" d="M26 1257l0 74c2,6 3,60 4,72 6,64 18,136 33,198 61,239 186,451 351,606 4,4 6,7 9,10l41 37c65,54 114,92 190,136 33,19 64,35 100,53 125,62 279,102 421,115 11,1 68,4 72,6l94 0c5,-2 59,-4 71,-5 22,-2 45,-5 68,-8 117,-17 252,-56 354,-106 70,-35 131,-68 194,-113 124,-90 214,-178 306,-306 63,-88 121,-198 158,-302 36,-102 59,-205 69,-314 1,-11 3,-66 5,-72l0 -89c-2,-5 -4,-60 -5,-72 -6,-64 -18,-135 -34,-197 -31,-120 -73,-224 -134,-327 -97,-165 -216,-291 -368,-400 -121,-86 -273,-155 -422,-192 -63,-16 -132,-27 -198,-33 -12,-1 -66,-3 -71,-4l-80 0c-4,1 -62,4 -72,5 -239,21 -479,113 -663,260 -23,18 -64,51 -84,71 -4,4 -6,6 -10,9 -11,10 -13,13 -20,19 -3,4 -5,6 -9,9 -23,23 -31,34 -51,56 -26,27 -68,81 -89,112 -21,30 -42,60 -60,94 -61,107 -103,207 -133,329 -10,41 -19,84 -25,128 -3,23 -6,46 -8,70 -1,11 -2,66 -4,71zm1255 -344c-59,2 -106,16 -153,38 -36,18 -82,50 -110,81 -34,39 -53,65 -75,116 -19,45 -31,106 -28,161 8,206 181,375 397,366 204,-9 374,-181 365,-397 -8,-204 -181,-375 -396,-365zm510 186l14 42c16,51 23,102 23,157 0,288 -240,528 -528,528 -96,0 -179,-23 -253,-62 -34,-19 -64,-39 -91,-61l-20 -18c-14,-12 -25,-24 -38,-39 -6,-6 -11,-14 -18,-20 -5,1 -442,254 -488,281 -7,4 -29,15 -33,19 5,8 13,19 18,26 21,28 37,49 59,75 14,17 28,32 42,47l57 55c10,8 25,24 35,31l50 40c263,197 605,271 935,194 96,-22 218,-68 301,-118 63,-38 110,-68 166,-116 7,-6 12,-10 18,-16 7,-6 13,-11 19,-16l53 -52c6,-6 10,-12 17,-18 13,-14 53,-62 64,-77 48,-61 101,-148 132,-219 69,-157 101,-300 101,-476 0,-90 -13,-185 -34,-267 -10,-40 -21,-78 -35,-115 -6,-16 -39,-99 -46,-105 -10,4 -115,66 -129,74 -87,49 -174,102 -261,151 -6,3 -127,72 -130,75z"/>
   <path class="fil1" d="M280 1789l521 -300 -15 -44c-70,-237 33,-489 242,-611 172,-100 384,-97 558,14 13,8 23,16 35,25 16,11 50,42 63,57 6,6 24,26 27,32 7,-1 373,-214 392,-225 43,-25 86,-50 130,-75 -9,-17 -75,-102 -95,-122 -17,-18 -40,-44 -58,-60l-35 -32c-10,-8 -23,-21 -36,-31 -47,-37 -63,-49 -118,-84 -83,-52 -183,-97 -280,-125 -348,-98 -698,-27 -962,159 -13,9 -26,19 -39,29l-91 77c-14,13 -54,53 -66,68l-31 36c-32,38 -74,98 -98,139 -113,193 -170,411 -156,647 7,124 31,220 71,332 6,16 34,86 41,94z"/>
  </g>
 </g>
</svg>
